<svg width="85" height="23" viewBox="0 0 85 23" fill="none" xmlns="http://www.w3.org/2000/svg">
<path d="M21 19.875C20.4333 20.575 19.7417 21.1083 18.925 21.475C18.125 21.8417 17.2417 22.025 16.275 22.025C14.975 22.025 13.8 21.7417 12.75 21.175C11.7 20.625 10.5 19.6417 9.15 18.225C7.56667 18.025 6.15 17.5167 4.9 16.7C3.66667 15.8833 2.7 14.8333 2 13.55C1.31667 12.25 0.975 10.8167 0.975 9.25C0.975 7.53333 1.38333 5.99167 2.2 4.625C3.03333 3.24167 4.175 2.15833 5.625 1.375C7.09167 0.591666 8.73333 0.2 10.55 0.2C12.3667 0.2 14 0.591666 15.45 1.375C16.9 2.15833 18.0417 3.24167 18.875 4.625C19.7083 5.99167 20.125 7.53333 20.125 9.25C20.125 11.2833 19.55 13.0667 18.4 14.6C17.2667 16.1333 15.7583 17.2 13.875 17.8C14.2917 18.2333 14.6917 18.5417 15.075 18.725C15.475 18.925 15.9 19.025 16.35 19.025C17.4333 19.025 18.3833 18.5917 19.2 17.725L21 19.875ZM5.075 9.25C5.075 10.3333 5.30833 11.3 5.775 12.15C6.25833 13 6.91667 13.6667 7.75 14.15C8.58333 14.6167 9.51667 14.85 10.55 14.85C11.5833 14.85 12.5167 14.6167 13.35 14.15C14.1833 13.6667 14.8333 13 15.3 12.15C15.7833 11.3 16.025 10.3333 16.025 9.25C16.025 8.16667 15.7833 7.2 15.3 6.35C14.8333 5.5 14.1833 4.84167 13.35 4.375C12.5167 3.89167 11.5833 3.65 10.55 3.65C9.51667 3.65 8.58333 3.89167 7.75 4.375C6.91667 4.84167 6.25833 5.5 5.775 6.35C5.30833 7.2 5.075 8.16667 5.075 9.25ZM30.7438 0.499999C32.2938 0.499999 33.6354 0.758332 34.7688 1.275C35.9188 1.79167 36.8021 2.525 37.4188 3.475C38.0354 4.425 38.3438 5.55 38.3438 6.85C38.3438 8.13333 38.0354 9.25833 37.4188 10.225C36.8021 11.175 35.9188 11.9083 34.7688 12.425C33.6354 12.925 32.2938 13.175 30.7438 13.175H27.2188V18H23.1688V0.499999H30.7438ZM30.5188 9.875C31.7354 9.875 32.6604 9.61667 33.2938 9.1C33.9271 8.56667 34.2438 7.81667 34.2438 6.85C34.2438 5.86667 33.9271 5.11667 33.2938 4.6C32.6604 4.06667 31.7354 3.8 30.5188 3.8H27.2188V9.875H30.5188ZM41.2352 0.499999H45.2852V18H41.2352V0.499999ZM57.8133 18.3C56.0299 18.3 54.4133 17.9167 52.9633 17.15C51.5299 16.3667 50.3966 15.2917 49.5633 13.925C48.7466 12.5417 48.3383 10.9833 48.3383 9.25C48.3383 7.51667 48.7466 5.96667 49.5633 4.6C50.3966 3.21667 51.5299 2.14167 52.9633 1.375C54.4133 0.591666 56.0383 0.2 57.8383 0.2C59.3549 0.2 60.7216 0.466666 61.9383 1C63.1716 1.53333 64.2049 2.3 65.0383 3.3L62.4383 5.7C61.2549 4.33333 59.7883 3.65 58.0383 3.65C56.9549 3.65 55.9883 3.89167 55.1383 4.375C54.2883 4.84167 53.6216 5.5 53.1383 6.35C52.6716 7.2 52.4383 8.16667 52.4383 9.25C52.4383 10.3333 52.6716 11.3 53.1383 12.15C53.6216 13 54.2883 13.6667 55.1383 14.15C55.9883 14.6167 56.9549 14.85 58.0383 14.85C59.7883 14.85 61.2549 14.1583 62.4383 12.775L65.0383 15.175C64.2049 16.1917 63.1716 16.9667 61.9383 17.5C60.7049 18.0333 59.3299 18.3 57.8133 18.3ZM74.1482 11.125L71.7982 13.575V18H67.7732V0.499999H71.7982V8.675L79.5482 0.499999H84.0482L76.7982 8.3L84.4732 18H79.7482L74.1482 11.125Z" fill="#fff"/>
</svg>
